<?xml version="1.0" encoding="UTF-8"?>
<svg width="28px" height="40px" viewBox="0 0 28 40" version="1.1" xmlns="http://www.w3.org/2000/svg" xmlns:xlink="http://www.w3.org/1999/xlink">
    <!-- Generator: Sketch 51.3 (57544) - http://www.bohemiancoding.com/sketch -->
    <title>Applications</title>
    <desc>Created with Sketch.</desc>
    <defs></defs>
    <g id="Page-1" stroke="none" stroke-width="1" fill="none" fill-rule="evenodd">
        <g id="Mobile" transform="translate(-9.000000, -3.000000)" fill="#214098" fill-rule="nonzero">
            <g id="Applications" transform="translate(9.000000, 3.000000)">
                <path d="M13.8269748,27.6384034 C15.9385714,27.6384034 17.7456303,26.8866387 19.2490756,25.3837815 C20.7522689,23.8809244 21.5039496,22.0729412 21.5039496,19.9615126 L21.5039496,7.67773109 C21.5039496,5.56630252 20.7528571,3.75907563 19.2490756,2.25546218 C17.7456303,0.752184874 15.9385714,0 13.8269748,0 C11.7156303,0 9.90831933,0.752184874 8.40478992,2.25546218 C6.90117647,3.75882353 6.1494958,5.56630252 6.1494958,7.67773109 L6.1494958,19.9615126 C6.1494958,22.0728571 6.90151261,23.8809244 8.40478992,25.3837815 C9.90806723,26.8866387 11.7156303,27.6384034 13.8269748,27.6384034 Z" id="Shape"></path>
                <path d="M27.1901681,15.8109244 C26.8871429,15.5069748 26.5264706,15.354958 26.1105882,15.354958 C25.6951261,15.354958 25.3352941,15.5069748 25.0310084,15.8109244 C24.727395,16.1147899 24.5754622,16.4746218 24.5754622,16.8903361 L24.5754622,19.9615126 C24.5754622,22.9206723 23.5235294,25.4516807 21.4201681,27.554958 C19.317479,29.6583193 16.7861345,30.71 13.8268908,30.71 C10.8677311,30.71 8.33663866,29.6583193 6.23319328,27.554958 C4.13,25.4522689 3.07848739,22.9207563 3.07848739,19.9615126 L3.07848739,16.8903361 C3.07848739,16.4746218 2.92647059,16.1147899 2.62268908,15.8109244 C2.3187395,15.5069748 1.9592437,15.354958 1.54310924,15.354958 C1.12697479,15.354958 0.767058824,15.5069748 0.463277311,15.8109244 C0.159243697,16.1147899 0.00731092437,16.4746218 0.00731092437,16.8903361 L0.00731092437,19.9615126 C0.00731092437,23.4963866 1.18714286,26.5715126 3.54613445,29.1863866 C5.90521008,31.8013445 8.8202521,33.3007563 12.2913445,33.6843697 L12.2913445,36.8516807 L6.14941176,36.8516807 C5.73352941,36.8516807 5.37369748,37.0038655 5.06983193,37.3078151 C4.76588235,37.6115126 4.61386555,37.9715126 4.61386555,38.387395 C4.61386555,38.802605 4.76588235,39.1632773 5.06983193,39.4669748 C5.37369748,39.7706723 5.73352941,39.9231092 6.14941176,39.9231092 L21.5039496,39.9231092 C21.9197479,39.9231092 22.280084,39.7707563 22.5835294,39.4669748 C22.8878151,39.1633613 23.039916,38.8026891 23.039916,38.387395 C23.039916,37.9715966 22.8878151,37.6115966 22.5835294,37.3078151 C22.2801681,37.0038655 21.9198319,36.8516807 21.5039496,36.8516807 L15.3627731,36.8516807 L15.3627731,33.6843697 C18.8332773,33.3007563 21.7480672,31.8013445 24.107395,29.1863866 C26.4667227,26.5715126 27.6468908,23.4963866 27.6468908,19.9615126 L27.6468908,16.8903361 C27.6468908,16.4747059 27.4945378,16.1151261 27.1901681,15.8109244 Z" id="Shape"></path>
            </g>
        </g>
    </g>
</svg>