<?xml version="1.0" encoding="UTF-8"?>
<svg width="33px" height="41px" viewBox="0 0 33 41" version="1.1" xmlns="http://www.w3.org/2000/svg" xmlns:xlink="http://www.w3.org/1999/xlink">
    <!-- Generator: Sketch 51.3 (57544) - http://www.bohemiancoding.com/sketch -->
    <title>banner</title>
    <desc>Created with Sketch.</desc>
    <defs></defs>
    <g id="Page-1" stroke="none" stroke-width="1" fill="none" fill-rule="evenodd">
        <g id="Mobile" transform="translate(-6.000000, -2.000000)" fill="#214098" fill-rule="nonzero">
            <g id="banner" transform="translate(6.000000, 2.000000)">
                <path d="M4.08695127,22.390768 L28.5132437,22.390768 C29.2623325,22.3898934 29.8694118,21.7828142 29.8702864,21.0337253 L29.8702864,10.1776218 C29.8694118,9.42853296 29.2623325,8.82145372 28.5132437,8.82057908 L4.08695127,8.82057908 C3.3378624,8.82145372 2.73078316,9.42845345 2.72990852,10.1776218 L2.72990852,21.0337253 C2.73078316,21.7828937 3.3378624,22.3898934 4.08695127,22.390768 Z M4.08695127,10.1776218 L28.5132437,10.1776218 L28.5139593,21.0337253 L4.08695127,21.0337253 L4.08695127,10.1776218 Z" id="Shape"></path>
                <path d="M8.158,14.2486706 C8.158,14.0687334 8.08651811,13.8961909 7.95921832,13.7689706 C7.83199805,13.6416708 7.65945556,13.5701889 7.47951838,13.5701889 C7.29958121,13.5701889 7.12703871,13.6416708 6.99981844,13.7689706 L5.64277569,15.1260134 C5.51547591,15.2532336 5.44399402,15.4257761 5.44399402,15.6057133 C5.44399402,15.7856505 5.51547591,15.958193 5.64277569,16.0854133 L6.99981844,17.442456 C7.26475466,17.7073922 7.69428211,17.7073922 7.95929784,17.442456 C8.22423405,17.1775198 8.22423405,16.7479128 7.95929784,16.4829766 L7.08203454,15.6056338 L7.95937735,14.728291 C8.08651811,14.6011502 8.158,14.4286077 8.158,14.2486706 Z" id="Shape"></path>
                <path d="M25.6003765,13.7689706 C25.3347247,13.5080896 24.9085367,13.5100774 24.6452703,13.7732643 C24.3820038,14.0365308 24.3800955,14.4627187 24.6409766,14.7283705 L25.5182399,15.6057133 L24.6409766,16.4829766 C24.467798,16.6540084 24.3994966,16.9047118 24.4619936,17.1399103 C24.5244905,17.3751088 24.7082443,17.5588626 24.9434428,17.6213595 C25.1786413,17.6838565 25.4293447,17.6155551 25.6003765,17.4423765 L26.9574192,16.0853337 C27.084719,15.9581135 27.1562009,15.785571 27.1562009,15.6056338 C27.1562009,15.4256966 27.084719,15.2531541 26.9574192,15.1259339 L25.6003765,13.7689706 Z" id="Shape"></path>
                <path d="M3.40846965,37.3179202 L11.5505671,37.3179202 C11.7305043,37.3179997 11.9031263,37.2465178 12.0304261,37.1192181 C12.1576464,36.9919978 12.2291282,36.8193758 12.2291282,36.6393591 L12.2291282,24.4262924 C12.2292078,24.2463552 12.1577259,24.0737332 12.0304261,23.9464334 C11.9032058,23.8192132 11.7305838,23.7477313 11.5505671,23.7477313 L3.40846965,23.7477313 C3.22853248,23.7476518 3.05591047,23.8191336 2.92861068,23.9464334 C2.80139041,24.0736537 2.72990852,24.2462757 2.72990852,24.4262924 L2.72990852,36.6394386 C2.72982901,36.8193758 2.8013109,36.9919978 2.92861068,37.1192976 C3.05583096,37.2465178 3.22845296,37.3179997 3.40846965,37.3179202 Z M4.08695127,25.104774 L10.872006,25.104774 L10.872006,35.9608775 L4.08695127,35.9608775 L4.08695127,25.104774 Z" id="Shape"></path>
                <path d="M28.5132437,23.7478108 L14.2645731,23.7478108 C14.0846359,23.7477313 13.9120139,23.8192132 13.7847141,23.9465129 C13.6574939,24.0737332 13.586012,24.2463552 13.586012,24.4263719 L13.586012,28.4974206 C13.5859325,28.6773578 13.6574143,28.8499798 13.7847141,28.9772796 C13.9119344,29.1044999 14.0845564,29.1759818 14.2645731,29.1759818 L28.5132437,29.1759818 C28.6931808,29.1760613 28.8658028,29.1045794 28.9931026,28.9772796 C29.1203229,28.8500593 29.1918048,28.6774373 29.1918048,28.4974206 L29.1918048,24.4263719 C29.1918843,24.2464347 29.1204024,24.0738127 28.9931026,23.9465129 C28.8658028,23.8192132 28.6931808,23.7477313 28.5132437,23.7478108 Z M27.834762,27.8188595 L14.9430547,27.8188595 L14.9430547,25.1048535 L27.834762,25.1048535 L27.834762,27.8188595 Z" id="Shape"></path>
                <path d="M28.5132437,30.5328655 L14.2645731,30.5328655 C13.8898299,30.5328655 13.5860915,30.8366834 13.5860915,31.2113471 C13.5860915,31.5860903 13.8899094,31.8898287 14.2645731,31.8898287 L28.5132437,31.8898287 C28.8879869,31.8898287 29.1917253,31.5860108 29.1917253,31.2113471 C29.1917253,30.8366834 28.8879869,30.5328655 28.5132437,30.5328655 Z" id="Shape"></path>
                <path d="M28.5132437,35.960957 L14.2645731,35.960957 C13.8898299,35.960957 13.5860915,36.2647749 13.5860915,36.6394386 C13.5860915,37.0141023 13.8899094,37.3179202 14.2645731,37.3179202 L28.5132437,37.3179202 C28.8879869,37.3179202 29.1917253,37.0141818 29.1917253,36.6394386 C29.1917253,36.2646954 28.8879869,35.960957 28.5132437,35.960957 Z" id="Shape"></path>
                <path d="M14.2645731,34.6039142 L19.6926646,34.6039142 C20.0674078,34.6039142 20.3711462,34.3001758 20.3711462,33.9254326 C20.3711462,33.5506894 20.0674078,33.246951 19.6926646,33.246951 L14.2645731,33.246951 C13.8898299,33.246951 13.5860915,33.5506894 13.5860915,33.9254326 C13.5860915,34.3001758 13.8898299,34.6039142 14.2645731,34.6039142 Z" id="Shape"></path>
                <path d="M28.5132437,33.2468715 L22.4066706,33.2468715 C22.0319273,33.2468715 21.7281889,33.5506099 21.7281889,33.9253531 C21.7281889,34.3000963 22.0319273,34.6038347 22.4066706,34.6038347 L28.5132437,34.6038347 C28.8879869,34.6038347 29.1917253,34.3000963 29.1917253,33.9253531 C29.1917253,33.5506099 28.8879869,33.2468715 28.5132437,33.2468715 Z" id="Shape"></path>
                <path d="M29.1917253,0 L3.40846965,0 C1.53570772,0.00222635478 0.0181288889,1.51980519 0.0159025341,3.39256712 L0.0159025341,37.3179997 C0.0181288889,39.1907617 1.53570772,40.7083405 3.40846965,40.7105668 L29.1918048,40.7105668 C31.0645667,40.7083405 32.5821456,39.1907617 32.5843719,37.3179997 L32.5843719,3.39256712 C32.582066,1.51980519 31.0644872,0.00222635478 29.1917253,0 Z M31.2272496,37.3179202 C31.226057,38.4415933 30.3153983,39.3522519 29.1917253,39.3534446 L3.40846965,39.3534446 C2.28479659,39.3522519 1.37413797,38.4415933 1.37294528,37.3179202 L1.37294528,6.78505472 L31.2273292,6.78505472 L31.2273292,37.3179202 L31.2272496,37.3179202 Z M31.2273292,5.42809148 L1.37294528,5.42809148 L1.37294528,3.39256712 C1.37413797,2.26889405 2.28479659,1.35823544 3.40846965,1.35704275 L29.1918048,1.35704275 C30.3154779,1.35823544 31.2261365,2.26889405 31.2273292,3.39256712 L31.2273292,5.42809148 Z" id="Shape"></path>
                <path d="M3.8292507,2.7680746 C3.74695509,2.80250359 3.67117951,2.85076778 3.60526351,2.91079984 C3.48011057,3.04000793 3.40958283,3.21262994 3.40846965,3.39256712 C3.40958283,3.48122374 3.42802977,3.56876719 3.4627768,3.65034719 C3.49553602,3.73335842 3.54387973,3.80945205 3.605184,3.87433439 C3.67117951,3.93420743 3.74695509,3.98239211 3.82917119,4.01682109 C3.91075119,4.05156813 3.99829464,4.07001507 4.08695127,4.07112825 C4.13004713,4.06985604 4.17306349,4.06532382 4.21552326,4.05753158 C4.26052743,4.05101154 4.30417988,4.03725585 4.34473135,4.01674158 C4.38790673,4.0017932 4.42893526,3.98119942 4.46662427,3.95543731 C4.50041715,3.92856203 4.53484614,3.90144821 4.56871854,3.87425487 C4.83111035,3.60669474 4.83111035,3.17835998 4.56871854,2.91079984 C4.37375347,2.71806113 4.08194197,2.66168665 3.8292507,2.7680746 Z" id="Shape"></path>
                <path d="M7.1740307,2.82937887 C7.13944269,2.80242407 7.10040197,2.78167127 7.05873733,2.7680746 C7.01818587,2.74756033 6.97453341,2.73388415 6.92952924,2.72760265 C6.79968505,2.70025029 6.66459302,2.71440355 6.54325669,2.76799509 C6.46096107,2.80242407 6.3851855,2.85068827 6.31926949,2.91079984 C6.05687768,3.17835998 6.05687768,3.60669474 6.31926949,3.87425487 C6.38534452,3.93412791 6.46104058,3.98231259 6.54325669,4.01674158 C6.62475717,4.05156813 6.71238014,4.07001507 6.80103676,4.07104873 C6.84413263,4.06977653 6.88714899,4.06524431 6.92960875,4.05745207 C6.97461292,4.05093203 7.01826538,4.03717634 7.05881684,4.01666207 C7.10048148,4.0030654 7.1395222,3.98231259 7.17411021,3.9553578 C7.21068604,3.93174253 7.24487649,3.9045492 7.27612497,3.87417536 C7.42258731,3.73176817 7.49629556,3.53044209 7.47641739,3.3272077 C7.45653922,3.12397331 7.34530099,2.94077612 7.1740307,2.82937887 Z" id="Shape"></path>
                <path d="M9.9458424,2.86476201 C9.78753267,2.73547441 9.57912996,2.68506337 9.37915559,2.72760265 C9.33669583,2.7348383 9.29558778,2.74851448 9.25726267,2.76799509 C9.21384875,2.78286396 9.17266119,2.80353725 9.13465413,2.82929936 L9.03327548,2.91079984 C8.77088366,3.17835998 8.77088366,3.60669474 9.03327548,3.87425487 C9.06706836,3.90144821 9.10086125,3.92856203 9.13465413,3.95543731 C9.17258168,3.98119942 9.21384875,4.0017932 9.25726267,4.01674158 C9.29566729,4.03622218 9.33677534,4.04997788 9.37915559,4.05753158 C9.42408025,4.06500577 9.46948199,4.06953799 9.51496324,4.07112825 C9.695457,4.07287752 9.86903316,4.00195222 9.99665099,3.87433439 C10.1242688,3.74671655 10.1951941,3.57314039 10.1934449,3.39264663 C10.1952736,3.18814004 10.1041521,2.99404961 9.9458424,2.86476201 Z" id="Shape"></path>
                <path d="M19.0141035,2.71400598 L13.586012,2.71400598 C13.2112688,2.71400598 12.9075304,3.01774439 12.9075304,3.3924876 C12.9075304,3.76723082 13.2112688,4.07096922 13.586012,4.07096922 L19.0141035,4.07096922 C19.3888467,4.07096922 19.6925851,3.76723082 19.6925851,3.3924876 C19.6925851,3.01774439 19.3888467,2.71400598 19.0141035,2.71400598 Z" id="Shape"></path>
            </g>
        </g>
    </g>
</svg>