<?xml version="1.0" encoding="UTF-8"?>
<svg width="37px" height="39px" viewBox="0 0 37 39" version="1.1" xmlns="http://www.w3.org/2000/svg" xmlns:xlink="http://www.w3.org/1999/xlink">
    <!-- Generator: Sketch 51.3 (57544) - http://www.bohemiancoding.com/sketch -->
    <title>Event</title>
    <desc>Created with Sketch.</desc>
    <defs></defs>
    <g id="Page-1" stroke="none" stroke-width="1" fill="none" fill-rule="evenodd">
        <g id="Mobile" transform="translate(-5.000000, -4.000000)" fill="#214098" fill-rule="nonzero" stroke-width="0.5">
            <g id="Event" transform="translate(6.000000, 5.000000)">
                <path d="M8.26004349,12.7076932 L4.44764975,12.7076932 C4.09670014,12.7076932 3.81239374,12.9919996 3.81239374,13.3429491 L3.81239374,17.1553429 C3.81239374,17.5062925 4.09670014,17.7905988 4.44764975,17.7905988 L8.26004349,17.7905988 C8.61099303,17.7905988 8.89529942,17.5062925 8.89529942,17.1553429 L8.89529942,13.3429491 C8.89529942,12.9919996 8.61099303,12.7076932 8.26004349,12.7076932 Z M7.62450149,16.5198009 L5.08319168,16.5198009 L5.08319168,13.9784911 L7.62450149,13.9784911 L7.62450149,16.5198009 Z" id="Shape" stroke="#27509B"></path>
                <path d="M14.613747,12.7076932 L10.8013533,12.7076932 C10.4506897,12.7076932 10.1660974,12.9919996 10.1660974,13.3429491 L10.1660974,17.1553429 C10.1660974,17.5062925 10.4506897,17.7905988 10.8013533,17.7905988 L14.613747,17.7905988 C14.9646967,17.7905988 15.249289,17.5062925 15.249289,17.1553429 L15.249289,13.3429491 C15.249289,12.9919996 14.9646967,12.7076932 14.613747,12.7076932 Z M13.9784911,16.5198009 L11.4368952,16.5198009 L11.4368952,13.9784911 L13.9784911,13.9784911 L13.9784911,16.5198009 Z" id="Shape" stroke="#27509B"></path>
                <path d="M20.9677367,12.7076932 L17.1553429,12.7076932 C16.8043933,12.7076932 16.5198009,12.9919996 16.5198009,13.3429491 L16.5198009,17.1553429 C16.5198009,17.5062925 16.8043933,17.7905988 17.1553429,17.7905988 L20.9674507,17.7905988 C21.3184003,17.7905988 21.6029926,17.5062925 21.6029926,17.1553429 L21.6029926,13.3429491 C21.6029926,12.9919996 21.3184003,12.7076932 20.9677367,12.7076932 Z M20.3321947,16.5198009 L17.7905988,16.5198009 L17.7905988,13.9784911 L20.3321947,13.9784911 L20.3321947,16.5198009 Z" id="Shape" stroke="#27509B"></path>
                <path d="M23.5090465,17.7905988 L27.3214402,17.7905988 C27.6723898,17.7905988 27.9566962,17.5062925 27.9566962,17.1553429 L27.9566962,13.3429491 C27.9566962,12.9919996 27.6723898,12.7076932 27.3214402,12.7076932 L23.5090465,12.7076932 C23.1580969,12.7076932 22.8737905,12.9919996 22.8737905,13.3429491 L22.8737905,17.1553429 C22.8737905,17.5062925 23.1580969,17.7905988 23.5090465,17.7905988 Z M24.1445885,13.9784911 L26.6858983,13.9784911 L26.6858983,16.5198009 L24.1445885,16.5198009 L24.1445885,13.9784911 Z" id="Shape" stroke="#27509B"></path>
                <path d="M8.26004349,19.0613968 L4.44764975,19.0613968 C4.09670014,19.0613968 3.81239374,19.3459892 3.81239374,19.6969387 L3.81239374,23.5090465 C3.81239374,23.8599961 4.09670014,24.1445885 4.44764975,24.1445885 L8.26004349,24.1445885 C8.61099303,24.1445885 8.89529942,23.8599961 8.89529942,23.5090465 L8.89529942,19.6969387 C8.89529942,19.3459892 8.61099303,19.0613968 8.26004349,19.0613968 Z M7.62450149,22.8737905 L5.08319168,22.8737905 L5.08319168,20.3321947 L7.62450149,20.3321947 L7.62450149,22.8737905 Z" id="Shape" stroke="#27509B"></path>
                <path d="M14.613747,19.0613968 L10.8013533,19.0613968 C10.4506897,19.0613968 10.1660974,19.3459892 10.1660974,19.6969387 L10.1660974,23.5090465 C10.1660974,23.8599961 10.4506897,24.1445885 10.8013533,24.1445885 L14.613747,24.1445885 C14.9646967,24.1445885 15.249289,23.8599961 15.249289,23.5090465 L15.249289,19.6969387 C15.249289,19.3459892 14.9646967,19.0613968 14.613747,19.0613968 Z M13.9784911,22.8737905 L11.4368952,22.8737905 L11.4368952,20.3321947 L13.9784911,20.3321947 L13.9784911,22.8737905 Z" id="Shape" stroke="#27509B"></path>
                <path d="M20.9677367,19.0613968 L17.1553429,19.0613968 C16.8043933,19.0613968 16.5198009,19.3459892 16.5198009,19.6969387 L16.5198009,23.5090465 C16.5198009,23.8599961 16.8043933,24.1445885 17.1553429,24.1445885 L20.9674507,24.1445885 C21.3184003,24.1445885 21.6029926,23.8599961 21.6029926,23.5090465 L21.6029926,19.6969387 C21.6029926,19.3459892 21.3184003,19.0613968 20.9677367,19.0613968 Z M20.3321947,22.8737905 L17.7905988,22.8737905 L17.7905988,20.3321947 L20.3321947,20.3321947 L20.3321947,22.8737905 Z" id="Shape" stroke="#27509B"></path>
                <path d="M23.5090465,24.1445885 L27.3214402,24.1445885 C27.6723898,24.1445885 27.9566962,23.8599961 27.9566962,23.5090465 L27.9566962,19.6969387 C27.9566962,19.3459892 27.6723898,19.0613968 27.3214402,19.0613968 L23.5090465,19.0613968 C23.1580969,19.0613968 22.8737905,19.3459892 22.8737905,19.6969387 L22.8737905,23.5090465 C22.8737905,23.8599961 23.1580969,24.1445885 23.5090465,24.1445885 Z M24.1445885,20.3321947 L26.6858983,20.3321947 L26.6858983,22.8737905 L24.1445885,22.8737905 L24.1445885,20.3321947 Z" id="Shape" stroke="#27509B"></path>
                <path d="M8.26004349,25.4153863 L4.44764975,25.4153863 C4.09670014,25.4153863 3.81239374,25.6996927 3.81239374,26.0506423 L3.81239374,29.8630361 C3.81239374,30.2139857 4.09670014,30.498292 4.44764975,30.498292 L8.26004349,30.498292 C8.61099303,30.498292 8.89529942,30.2139857 8.89529942,29.8630361 L8.89529942,26.0506423 C8.89529942,25.6996927 8.61099303,25.4153863 8.26004349,25.4153863 Z M7.62450149,29.2274941 L5.08319168,29.2274941 L5.08319168,26.6858983 L7.62450149,26.6858983 L7.62450149,29.2274941 Z" id="Shape" stroke="#27509B"></path>
                <path d="M14.613747,25.4153863 L10.8013533,25.4153863 C10.4506897,25.4153863 10.1660974,25.6996927 10.1660974,26.0506423 L10.1660974,29.8630361 C10.1660974,30.2139857 10.4506897,30.498292 10.8013533,30.498292 L14.613747,30.498292 C14.9646967,30.498292 15.249289,30.2139857 15.249289,29.8630361 L15.249289,26.0506423 C15.249289,25.6996927 14.9646967,25.4153863 14.613747,25.4153863 Z M13.9784911,29.2274941 L11.4368952,29.2274941 L11.4368952,26.6858983 L13.9784911,26.6858983 L13.9784911,29.2274941 Z" id="Shape" stroke="#27509B"></path>
                <path d="M20.9677367,25.4153863 L17.1553429,25.4153863 C16.8043933,25.4153863 16.5198009,25.6996927 16.5198009,26.0506423 L16.5198009,29.8630361 C16.5198009,30.2139857 16.8043933,30.498292 17.1553429,30.498292 L20.9674507,30.498292 C21.3184003,30.498292 21.6029926,30.2139857 21.6029926,29.8630361 L21.6029926,26.0506423 C21.6029926,25.6996927 21.3184003,25.4153863 20.9677367,25.4153863 Z M20.3321947,29.2274941 L17.7905988,29.2274941 L17.7905988,26.6858983 L20.3321947,26.6858983 L20.3321947,29.2274941 Z" id="Shape" stroke="#27509B"></path>
                <path d="M31.76909,25.639628 L31.76909,3.17685181 C31.76909,2.8259022 31.4844976,2.54159588 31.1335479,2.54159588 L27.9566962,2.54159588 L27.9566962,1.90605387 C27.9566962,0.853491109 27.1034911,5.68434189e-14 26.0506423,5.68434189e-14 C24.9977936,5.68434189e-14 24.1445885,0.853491109 24.1445885,1.90605387 L24.1445885,2.54159588 L22.8737905,2.54159588 L22.8737905,1.90605387 C22.8737905,0.853491109 22.0202994,5.68434189e-14 20.9677367,5.68434189e-14 C19.9148879,5.68434189e-14 19.0613968,0.853491109 19.0613968,1.90605387 L19.0613968,2.54159588 L17.7905988,2.54159588 L17.7905988,1.90605387 C17.7905988,0.853491109 16.9373937,5.68434189e-14 15.884545,5.68434189e-14 C14.8316962,5.68434189e-14 13.9784911,0.853491109 13.9784911,1.90605387 L13.9784911,2.54159588 L12.7076932,2.54159588 L12.7076932,1.90605387 C12.7076932,0.853491109 11.8542021,5.68434189e-14 10.8013533,5.68434189e-14 C9.74879053,5.68434189e-14 8.89529942,0.853491109 8.89529942,1.90605387 L8.89529942,2.54159588 L7.62450149,2.54159588 L7.62450149,1.90605387 C7.62450149,0.853491109 6.77129638,5.68434189e-14 5.71844762,5.68434189e-14 C4.66559885,5.68434189e-14 3.81239374,0.853491109 3.81239374,1.90605387 L3.81239374,2.54159588 L0.635255931,2.54159588 C0.284592395,2.54159588 -2.84217094e-14,2.8259022 -2.84217094e-14,3.17685181 L-2.84217094e-14,33.6751438 C-2.84217094e-14,34.0260934 0.284592395,34.3106858 0.635255931,34.3106858 L23.0980322,34.3106858 C24.8493479,37.3482446 28.7315311,38.3910826 31.76909,36.640053 C34.8066488,34.8887373 35.8494868,31.006554 34.0984571,27.9689951 C33.5404272,27.001095 32.7369901,26.1976579 31.76909,25.639628 Z M25.4153863,1.90605387 C25.4153863,1.55510426 25.6996927,1.27079794 26.0506423,1.27079794 C26.4015919,1.27079794 26.6858983,1.55510426 26.6858983,1.90605387 L26.6858983,4.44764975 C26.6858983,4.79859929 26.4015919,5.08319168 26.0506423,5.08319168 C25.6996927,5.08319168 25.4153863,4.79859929 25.4153863,4.44764975 L25.4153863,1.90605387 Z M20.3321947,1.90605387 C20.3321947,1.55510426 20.6167871,1.27079794 20.9677367,1.27079794 C21.3184003,1.27079794 21.6029926,1.55510426 21.6029926,1.90605387 L21.6029926,4.44764975 C21.6029926,4.79859929 21.3184003,5.08319168 20.9677367,5.08319168 C20.6167871,5.08319168 20.3321947,4.79859929 20.3321947,4.44764975 L20.3321947,1.90605387 Z M15.249289,1.90605387 C15.249289,1.55510426 15.5335954,1.27079794 15.884545,1.27079794 C16.2354946,1.27079794 16.5198009,1.55510426 16.5198009,1.90605387 L16.5198009,4.44764975 C16.5198009,4.79859929 16.2354946,5.08319168 15.884545,5.08319168 C15.5335954,5.08319168 15.249289,4.79859929 15.249289,4.44764975 L15.249289,1.90605387 Z M10.1660974,1.90605387 C10.1660974,1.55510426 10.4506897,1.27079794 10.8013533,1.27079794 C11.1523029,1.27079794 11.4368952,1.55510426 11.4368952,1.90605387 L11.4368952,4.44764975 C11.4368952,4.79859929 11.1523029,5.08319168 10.8013533,5.08319168 C10.4506897,5.08319168 10.1660974,4.79859929 10.1660974,4.44764975 L10.1660974,1.90605387 Z M5.08319168,1.90605387 C5.08319168,1.55510426 5.36749808,1.27079794 5.71844762,1.27079794 C6.06939723,1.27079794 6.35370362,1.55510426 6.35370362,1.90605387 L6.35370362,4.44764975 C6.35370362,4.79859929 6.06939723,5.08319168 5.71844762,5.08319168 C5.36749808,5.08319168 5.08319168,4.79859929 5.08319168,4.44764975 L5.08319168,1.90605387 Z M1.27079794,3.81239374 L3.81239374,3.81239374 L3.81239374,4.44764975 C3.81239374,5.50049851 4.66559885,6.35370362 5.71844762,6.35370362 C6.77129638,6.35370362 7.62450149,5.50049851 7.62450149,4.44764975 L7.62450149,3.81239374 L8.89529942,3.81239374 L8.89529942,4.44764975 C8.89529942,5.50049851 9.74879053,6.35370362 10.8013533,6.35370362 C11.8542021,6.35370362 12.7076932,5.50049851 12.7076932,4.44764975 L12.7076932,3.81239374 L13.9784911,3.81239374 L13.9784911,4.44764975 C13.9784911,5.50049851 14.8316962,6.35370362 15.884545,6.35370362 C16.9373937,6.35370362 17.7905988,5.50049851 17.7905988,4.44764975 L17.7905988,3.81239374 L19.0613968,3.81239374 L19.0613968,4.44764975 C19.0613968,5.50049851 19.9148879,6.35370362 20.9677367,6.35370362 C22.0202994,6.35370362 22.8737905,5.50049851 22.8737905,4.44764975 L22.8737905,3.81239374 L24.1445885,3.81239374 L24.1445885,4.44764975 C24.1445885,5.50049851 24.9980796,6.35370362 26.0506423,6.35370362 C27.1034911,6.35370362 27.9569822,5.50049851 27.9569822,4.44764975 L27.9569822,3.81239374 L30.498292,3.81239374 L30.498292,8.89529942 L1.27079794,8.89529942 L1.27079794,3.81239374 Z M1.27079794,33.0398879 L1.27079794,10.1660974 L30.498292,10.1660974 L30.498292,25.0727314 C27.1506848,24.0201687 23.5836984,25.8807449 22.5311356,29.2283522 C22.141287,30.4688318 22.141287,31.7994083 22.5311356,33.0398879 L1.27079794,33.0398879 Z M28.5922381,36.2167397 C25.7849275,36.2167397 23.5090465,33.9411447 23.5090465,31.133834 C23.5090465,28.3265233 25.7849275,26.0506423 28.5922381,26.0506423 C31.3995489,26.0506423 33.6751438,28.3265233 33.6751438,31.133834 C33.6719976,33.9397146 31.3981188,36.2135934 28.5922381,36.2167397 Z" id="Shape" stroke="#27509B"></path>
                <path d="M30.7365488,28.7312451 L28.004462,30.918173 L26.5005557,29.4136947 C26.2522882,29.1657132 25.8498545,29.1657132 25.6018731,29.4139808 C25.3536055,29.6622483 25.3538916,30.0646819 25.6021591,30.3126634 L27.5082129,32.2190033 C27.7370309,32.4481074 28.1017096,32.4681289 28.3545535,32.265911 L31.5314053,29.7243152 C31.8057008,29.5052219 31.8503203,29.1050765 31.6309411,28.8307809 C31.4115619,28.5564854 31.0114164,28.5118658 30.7371208,28.7312451 L30.7365488,28.7312451 Z" id="Shape" stroke="#979797"></path>
            </g>
        </g>
    </g>
</svg>