<?xml version="1.0" encoding="UTF-8"?>
<svg width="37px" height="35px" viewBox="0 0 37 35" version="1.1" xmlns="http://www.w3.org/2000/svg" xmlns:xlink="http://www.w3.org/1999/xlink">
    <!-- Generator: Sketch 51.3 (57544) - http://www.bohemiancoding.com/sketch -->
    <title>FAQ's</title>
    <desc>Created with Sketch.</desc>
    <defs></defs>
    <g id="Page-1" stroke="none" stroke-width="1" fill="none" fill-rule="evenodd">
        <g id="Mobile" transform="translate(-5.000000, -6.000000)" fill="#214098" fill-rule="nonzero">
            <g id="FAQ's" transform="translate(5.000000, 6.000000)">
                <path d="M20.1851915,28.5818044 L14.991996,26.4180141 C16.4782964,26.1481048 17.8495766,25.7311391 18.9839012,25.2009879 C19.5064315,24.9568347 19.8412601,24.4297883 19.8370262,23.8581452 C19.7844556,16.7412198 18.7928831,7.27971774 10.8236089,7.27971774 C2.85433468,7.27971774 1.8627621,16.7412903 1.81019153,23.8581452 C1.80595766,24.4296472 2.14078629,24.9566935 2.66331653,25.2009173 C3.79771169,25.730998 5.1690625,26.1480343 6.65529234,26.4179435 L1.46209677,28.5817339 C0.57390121,28.9519153 0,29.8127319 0,30.7749496 L0,33.1886089 C0,34.165998 0.795120968,34.961119 1.77251008,34.961119 L19.8747077,34.961119 C20.8520968,34.961119 21.6472177,34.165998 21.6472177,33.1886089 L21.6472177,30.7749496 C21.6472177,29.8127319 21.0733165,28.9519153 20.1851915,28.5818044 Z M18.7055948,23.8666129 C18.7066532,23.9970867 18.6278327,24.1184577 18.5049093,24.1759677 C17.361623,24.7102117 15.946381,25.1221673 14.4064516,25.3705544 L14.4064516,24.6044355 L15.413125,24.0451411 C16.2757056,23.5658669 16.8439617,22.693125 16.9332258,21.7104435 L16.9354133,21.6860988 L17.4610484,21.6860988 C17.9095565,21.6860988 18.3193246,21.5183669 18.6318548,21.2427419 C18.6742641,22.0724395 18.6986794,22.9466633 18.7055948,23.8666129 Z M10.8236089,23.4963609 C12.989375,23.4963609 14.4715121,23.0428427 15.4328125,22.5642036 C15.2808871,22.7625605 15.0886694,22.9311391 14.8636391,23.0561794 L11.7210484,24.8020161 C11.1591431,25.1141935 10.4881452,25.1141935 9.92623992,24.8020161 L6.78371976,23.0561794 C6.2486996,22.7589617 5.89615927,22.2175907 5.84083669,21.6080544 L5.40354839,16.7980242 C6.98433468,16.619496 11.4754839,16.0149698 14.1836089,14.6655645 C14.5092641,15.2623286 15.1507661,16.1535585 16.2562298,16.662752 L15.8677016,20.9364919 C15.4057157,21.3450605 13.9405141,22.365 10.82375,22.365 C10.5113609,22.365 10.2580343,22.618256 10.2580343,22.9307157 C10.2580343,23.2431754 10.5112198,23.4963609 10.8236089,23.4963609 Z M17.0383669,20.5547379 L17.2646673,18.0657157 L17.461119,18.0657157 C17.8146472,18.0657157 18.1022681,18.3533367 18.1022681,18.7068649 L18.1022681,19.9136593 C18.1022681,20.2671875 17.8146472,20.5548085 17.461119,20.5548085 L17.0383669,20.5548085 L17.0383669,20.5547379 Z M4.58210685,12.8682863 C5.85946573,9.86915323 7.90096774,8.41114919 10.8236089,8.41114919 C13.74625,8.41114919 15.787752,9.86915323 17.0651109,12.8683569 C17.5624496,14.036129 17.9444859,15.4409274 18.2144657,17.1028629 C17.9856956,16.9948992 17.7303931,16.9343548 17.461119,16.9343548 L17.3674093,16.9343548 L17.4210383,16.3444355 C17.4448185,16.082994 17.2855544,15.8396169 17.0365323,15.7565625 C15.5283569,15.2538609 14.9852218,13.714002 14.9807056,13.7006653 C14.926371,13.537873 14.8012601,13.4085282 14.6403024,13.3490423 C14.4793448,13.2895565 14.3001109,13.3062802 14.1529839,13.3945565 C11.2824899,15.1168246 4.80332661,15.7239617 4.73826613,15.7298891 C4.42714718,15.7581855 4.1978125,16.0333871 4.22610887,16.3444355 L4.27980847,16.9342843 L4.18609879,16.9342843 C3.9168246,16.9342843 3.66152218,16.9948992 3.43275202,17.1028629 C3.70273185,15.4408569 4.08476815,14.036129 4.58210685,12.8682863 Z M4.60892137,20.5547379 L4.18616935,20.5547379 C3.83264113,20.5547379 3.54502016,20.2671169 3.54502016,19.9135887 L3.54502016,18.7067944 C3.54502016,18.3532661 3.83264113,18.0656452 4.18616935,18.0656452 L4.38262097,18.0656452 L4.60892137,20.5547379 Z M3.14237903,24.1758972 C3.01945565,24.1185282 2.94063508,23.9971573 2.94162298,23.8665423 C2.94839718,22.9465927 2.97295363,22.0724395 3.01529234,21.2426714 C3.32789315,21.5183669 3.73766129,21.6860988 4.18609879,21.6860988 L4.71173387,21.6860988 L4.71392137,21.7104435 C4.80325605,22.6931956 5.37158266,23.5659375 6.23416331,24.0451411 L7.24090726,24.6043649 L7.24090726,25.3704839 C5.70090726,25.1220968 4.28573589,24.7102117 3.14237903,24.1758972 Z M7.28148185,27.382631 C7.94415323,27.1066532 8.37226815,26.4644456 8.37226815,25.7465927 L8.37226815,25.2330242 L9.37668347,25.7910484 C9.82977823,26.042752 10.326623,26.1685685 10.8236089,26.1685685 C11.3205242,26.1685685 11.8175806,26.0426815 12.2705343,25.7910484 L13.2749496,25.2330242 L13.2749496,25.7465927 C13.2749496,26.4645161 13.7030645,27.1066532 14.3656653,27.3827016 L15.0075202,27.6501411 C13.1453931,29.8715827 11.3243347,30.614627 10.8219153,30.7866633 C10.3173085,30.6168851 8.51269153,29.8866835 6.63948589,27.6501411 L7.28148185,27.382631 Z M3.62045363,33.8296875 L1.77251008,33.8296875 C1.41898185,33.8296875 1.13136089,33.5420665 1.13136089,33.1885383 L1.13136089,30.774879 C1.13136089,30.6189315 1.16029234,30.4680645 1.21385081,30.3282762 L3.1533871,31.8799194 C3.45025202,32.117369 3.62045363,32.4715323 3.62045363,32.8517339 L3.62045363,33.8296875 Z M16.8954032,32.8518044 L16.8954032,33.8296875 L4.75181452,33.8296875 L4.75181452,32.8518044 C4.75181452,32.1260484 4.42679435,31.4498992 3.86016129,30.9964516 L2.0616129,29.5576411 L5.5496875,28.1042238 C5.55145161,28.1064819 5.5528629,28.1089516 5.55469758,28.1112097 C8.05882056,31.2413105 10.5803024,31.9005242 10.686502,31.9270565 C10.7315222,31.9382762 10.7776008,31.9439214 10.8236794,31.9439214 C10.8697581,31.9439214 10.9158367,31.9382762 10.9608569,31.9270565 C11.0669859,31.9005242 13.5885383,31.2413105 16.0926613,28.1112097 C16.094496,28.1089516 16.0959073,28.1064819 16.0976714,28.1042238 L19.585746,29.5576411 L17.7871976,30.9964516 C17.2204234,31.4498992 16.8954032,32.1260484 16.8954032,32.8518044 Z M20.5158569,33.1886089 C20.5158569,33.5421371 20.2282359,33.8297581 19.8747077,33.8297581 L18.0267641,33.8297581 L18.0267641,32.851875 C18.0267641,32.471744 18.1969657,32.1175101 18.4938306,31.8799899 L20.4333669,30.3284173 C20.4869254,30.4682056 20.5158569,30.619002 20.5158569,30.7750202 L20.5158569,33.1886089 Z" id="Shape"></path>
                <path d="M33.753125,0.0388810484 L21.6849698,0.0388810484 C20.374869,0.0388810484 19.3090625,1.10475806 19.3090625,2.41478831 L19.3090625,9.05229839 C19.3090625,10.1675706 20.0813911,11.1057964 21.119254,11.3601815 L21.119254,13.8795464 C21.119254,14.1083165 21.2570665,14.3146472 21.4684778,14.4021472 C21.5384778,14.4310786 21.6119355,14.4451915 21.6848992,14.4451915 C21.8320968,14.4451915 21.9768246,14.3876815 22.085,14.279506 L24.9362298,11.4282056 L33.753125,11.4282056 C35.0632258,11.4282056 36.1290323,10.3623286 36.1290323,9.05229839 L36.1290323,2.41478831 C36.1290323,1.10475806 35.0631552,0.0388810484 33.753125,0.0388810484 Z M34.9976714,9.05229839 C34.9976714,9.73853831 34.4393649,10.2968448 33.753125,10.2968448 L24.7020262,10.2968448 C24.552006,10.2968448 24.408125,10.3564012 24.3020665,10.4625302 L22.2506855,12.5139113 L22.2506855,10.8625605 C22.2506855,10.5501714 21.9974294,10.2968448 21.6849698,10.2968448 C20.9987298,10.2968448 20.4404234,9.73853831 20.4404234,9.05229839 L20.4404234,2.41478831 C20.4404234,1.72854839 20.9987298,1.17024194 21.6849698,1.17024194 L33.753125,1.17024194 C34.4393649,1.17024194 34.9976714,1.72854839 34.9976714,2.41478831 L34.9976714,9.05229839 Z" id="Shape"></path>
                <path d="M25.8710685,5.13011089 C25.8710685,3.98633065 24.9406048,3.05586694 23.7968246,3.05586694 C22.6530444,3.05586694 21.7225806,3.98633065 21.7225806,5.13011089 L21.7225806,6.33690524 C21.7225806,7.48068548 22.6530444,8.41114919 23.7968246,8.41114919 C24.1635484,8.41114919 24.5081149,8.31511089 24.8073085,8.14737903 L24.9053931,8.24546371 C25.0158266,8.35589718 25.160625,8.41114919 25.3053528,8.41114919 C25.4500806,8.41114919 25.5949496,8.35596774 25.7053125,8.24546371 C25.92625,8.02452621 25.92625,7.66641129 25.7053125,7.44547379 L25.6072984,7.34738911 C25.7749597,7.04819556 25.870998,6.70362903 25.870998,6.33690524 L25.870998,5.13011089 L25.8710685,5.13011089 Z M24.7397077,6.33697581 C24.7397077,6.38199597 24.7354032,6.42595766 24.7292641,6.46935484 L24.4985181,6.23860887 C24.2775806,6.01767137 23.9193952,6.01767137 23.6985282,6.23860887 C23.4775907,6.45954637 23.4775907,6.81766129 23.6985282,7.03859879 L23.9292742,7.26934476 C23.8858065,7.27555444 23.8418448,7.27985887 23.7968246,7.27985887 C23.2769052,7.27985887 22.8540121,6.85696573 22.8540121,6.33704637 L22.8540121,5.13011089 C22.8540121,4.61019153 23.2769052,4.18729839 23.7968246,4.18729839 C24.316744,4.18729839 24.7396371,4.61019153 24.7396371,5.13011089 L24.7396371,6.33697581 L24.7397077,6.33697581 Z" id="Shape"></path>
                <path d="M29.1047581,2.48154234 C28.8083871,2.38268145 28.4880242,2.54293347 28.3891633,2.839375 L26.5789718,8.27002016 C26.4801815,8.56639113 26.6403629,8.88675403 26.9368044,8.98561492 C26.9961492,9.00537298 27.0564113,9.01482863 27.115756,9.01482863 C27.3525706,9.01482863 27.5732964,8.8649496 27.6523286,8.62792339 L29.4625202,3.19727823 C29.5613105,2.90069556 29.401129,2.58040323 29.1047581,2.48154234 Z" id="Shape"></path>
                <path d="M33.6937097,7.6900504 L32.4868448,3.4661996 C32.4175504,3.2233871 32.1955544,3.0559375 31.9429335,3.0559375 L31.3395363,3.0559375 C31.0869153,3.0559375 30.8649899,3.2233871 30.795625,3.4661996 L29.5888306,7.6900504 C29.5030242,7.99044355 29.6768952,8.30353831 29.9773589,8.38941532 C30.277752,8.47522177 30.5908468,8.30142137 30.6767238,8.0008871 L30.9042944,7.20435484 L32.3783165,7.20435484 L32.6058871,8.00095766 C32.676875,8.24941532 32.9033871,8.41136089 33.1495867,8.41136089 C33.2010282,8.41136089 33.2533871,8.40430444 33.305252,8.38941532 C33.605504,8.30353831 33.7795161,7.99044355 33.6937097,7.6900504 Z M31.2274093,6.07299395 L31.6411996,4.62479839 L32.0549899,6.07299395 L31.2274093,6.07299395 Z" id="Shape"></path>
            </g>
        </g>
    </g>
</svg>