<?xml version="1.0" encoding="UTF-8"?>
<svg width="35px" height="27px" viewBox="0 0 35 27" version="1.1" xmlns="http://www.w3.org/2000/svg" xmlns:xlink="http://www.w3.org/1999/xlink">
    <!-- Generator: Sketch 51.3 (57544) - http://www.bohemiancoding.com/sketch -->
    <title>logout</title>
    <desc>Created with Sketch.</desc>
    <defs></defs>
    <g id="Page-1" stroke="none" stroke-width="1" fill="none" fill-rule="evenodd">
        <g id="Mobile" transform="translate(-5.000000, -9.000000)" fill="#214098" fill-rule="nonzero">
            <g id="logout" transform="translate(5.000000, 9.000000)">
                <path d="M5.43168182,14.6363636 L23.8634242,14.6363636 C24.7420303,14.6363636 25.4543333,13.9240606 25.4543333,13.0454545 C25.4543333,12.1668485 24.7420303,11.4545455 23.8634242,11.4545455 L5.43168182,11.4545455 L7.48862121,9.39771212 C8.10992424,8.77651515 8.10992424,7.76915152 7.48862121,7.14784848 C6.8675303,6.52654545 5.86016667,6.52654545 5.23875758,7.14784848 L0.466348485,11.9202576 C0.429439394,11.9570606 0.394651515,11.9955606 0.361560606,12.0358636 C0.3535,12.0457273 0.346606061,12.0563333 0.338757576,12.0664091 C0.314469697,12.0972727 0.290606061,12.1282424 0.268757576,12.1609091 C0.262393939,12.1704545 0.25719697,12.1805303 0.250939394,12.1901818 C0.229090909,12.2243333 0.207666667,12.258803 0.188363636,12.2947576 C0.184651515,12.3018636 0.181575758,12.3093939 0.177863636,12.3165 C0.157818182,12.3554242 0.138515152,12.3948788 0.121651515,12.4356061 C0.119530303,12.4405909 0.118045455,12.4458939 0.116030303,12.4509848 C0.0987424242,12.4938333 0.0827272727,12.5372121 0.0691515152,12.5818636 C0.0673484848,12.5874848 0.0663939394,12.5933182 0.0648030303,12.5990455 C0.051969697,12.6428485 0.0401969697,12.6870758 0.0311818182,12.7323636 C0.028530303,12.7458333 0.0273636364,12.7597273 0.0249242424,12.773303 C0.0183484848,12.8108485 0.0117727273,12.8483939 0.00806060606,12.8866818 C0.00265151515,12.9391818 0,12.9922121 0,13.0454545 C0,13.098697 0.00265151515,13.1517273 0.00806060606,13.2043333 C0.0117727273,13.2431515 0.0185606061,13.2810152 0.025030303,13.3188788 C0.0273636364,13.3320303 0.028530303,13.3455 0.0311818182,13.3585455 C0.0403030303,13.4042576 0.051969697,13.4489091 0.0649090909,13.4931364 C0.0665,13.4983333 0.0674545455,13.5038485 0.0690454545,13.5090455 C0.0827272727,13.5539091 0.0987424242,13.5977121 0.116242424,13.6409848 C0.118151515,13.6456515 0.119530303,13.6506364 0.121545455,13.655303 C0.138515152,13.6963485 0.157924242,13.7360152 0.178181818,13.7751515 C0.181681818,13.7820455 0.184651515,13.7892576 0.188257576,13.7961515 C0.207772727,13.8323182 0.22930303,13.8671061 0.251469697,13.9015758 C0.257409091,13.9109091 0.2625,13.9207727 0.268651515,13.9298939 C0.290606061,13.9626667 0.314681818,13.9938485 0.338863636,14.0248182 C0.346606061,14.0347879 0.3535,14.0452879 0.361454545,14.0550455 C0.394651515,14.0952424 0.429439394,14.1338485 0.466242424,14.1706515 L5.23865152,18.9430606 C5.54930303,19.2538182 5.9564697,19.4090909 6.36363636,19.4090909 C6.77080303,19.4090909 7.1779697,19.2538182 7.48851515,18.9430606 C8.10981818,18.3217576 8.10981818,17.3145 7.48851515,16.693197 L5.43168182,14.6363636 Z" id="XMLID_4_"></path>
                <path d="M21.9862576,0.0317121212 C17.6437121,0.0317121212 13.6034394,2.18601515 11.1783636,5.79430303 C10.6883636,6.5234697 10.8822424,7.51195455 11.6114091,8.00206061 C12.3406818,8.49206061 13.3290606,8.29839394 13.8192727,7.56901515 C15.6521061,4.84166667 18.7051667,3.21342424 21.9862576,3.21342424 C27.4075455,3.2135303 31.8181818,7.62406061 31.8181818,13.0454545 C31.8181818,18.4668485 27.4075455,22.8773788 21.9862576,22.8773788 C18.7148182,22.8773788 15.6667424,21.2564545 13.8325303,18.5415152 C13.3405152,17.8134091 12.3518182,17.6220758 11.6236061,18.1138788 C10.8956061,18.6057879 10.7040606,19.594697 11.1959697,20.322697 C13.6227424,23.9147576 17.6564394,26.059197 21.9862576,26.059197 C29.162,26.059197 35,20.221303 35,13.0454545 C35,5.86960606 29.162,0.0317121212 21.9862576,0.0317121212 Z" id="XMLID_5_"></path>
            </g>
        </g>
    </g>
</svg>