<?xml version="1.0" encoding="UTF-8"?>
<svg width="40px" height="25px" viewBox="0 0 40 25" version="1.1" xmlns="http://www.w3.org/2000/svg" xmlns:xlink="http://www.w3.org/1999/xlink">
    <!-- Generator: Sketch 51.3 (57544) - http://www.bohemiancoding.com/sketch -->
    <title>Product Management</title>
    <desc>Created with Sketch.</desc>
    <defs></defs>
    <g id="Page-1" stroke="none" stroke-width="1" fill="none" fill-rule="evenodd">
        <g id="Mobile" transform="translate(-3.000000, -10.000000)" fill="#214098" fill-rule="nonzero">
            <g id="Product-Management" transform="translate(3.000000, 10.000000)">
                <path d="M11.8495425,17.3712586 C9.90379085,17.3712586 8.32568627,18.9347231 8.32568627,20.8567256 C8.32568627,22.7843617 9.90379085,24.3478261 11.8495425,24.3478261 C13.7896078,24.3478261 15.3676471,22.7842969 15.3676471,20.8567256 C15.3676471,18.9347231 13.7896078,17.3712586 11.8495425,17.3712586 Z M11.8495425,22.6050602 C10.8766667,22.6050602 10.0848366,21.820576 10.0848366,20.8567256 C10.0848366,19.8985087 10.8766667,19.1139597 11.8495425,19.1139597 C12.8166667,19.1139597 13.6085621,19.898444 13.6085621,20.8567256 C13.6085621,21.820576 12.816732,22.6050602 11.8495425,22.6050602 Z M8.81620915,17.3727479 L0.929934641,17.3727479 C0.617581699,17.3727479 0.364379085,17.6236016 0.364379085,17.9330568 L0.364379085,19.6332151 C0.364379085,19.9426703 0.617581699,20.193524 0.929934641,20.193524 L7.25111111,20.193524 C7.41620915,19.0716759 7.98771242,18.0806292 8.81620915,17.3727479 Z M30.2601961,17.3712586 C28.3200654,17.3712586 26.7420915,18.9347231 26.7420915,20.8567256 C26.7420915,22.7843617 28.3201307,24.3478261 30.2601961,24.3478261 C32.2058824,24.3478261 33.7782353,22.7842969 33.7782353,20.8567256 C33.7783007,18.9347231 32.2058824,17.3712586 30.2601961,17.3712586 Z M30.2601961,22.6050602 C29.2873203,22.6050602 28.5011111,21.820576 28.5011111,20.8567256 C28.5011111,19.8985087 29.2873203,19.1139597 30.2601961,19.1139597 C31.2330065,19.1139597 32.0192157,19.898444 32.0192157,20.8567256 C32.019281,21.820576 31.2330065,22.6050602 30.2601961,22.6050602 Z M39.4344444,17.3712586 L38.06,17.3712586 L38.06,9.7559015 C38.06,8.86496312 37.7884967,7.9907958 37.285098,7.251056 L33.8405882,2.19662058 C33.0033987,0.963785653 31.595098,0.224110598 30.0905882,0.224110598 L24.7512418,0.224110598 C24.1290196,0.224110598 23.62,0.72283924 23.62,1.34485785 L23.62,17.3712586 L14.8812418,17.3712586 C15.7070588,18.0828956 16.2783007,19.0692153 16.4423529,20.1954666 L25.667451,20.1954666 C25.9898693,17.9708727 27.9242484,16.2505114 30.2602614,16.2505114 C32.5961438,16.2505114 34.5305882,17.9708079 34.8586275,20.1954666 L39.4344444,20.1954666 C39.7512418,20.1954666 40,19.9432531 40,19.635093 L40,17.9316323 C40,17.6234073 39.7511111,17.3712586 39.4344444,17.3712586 Z M33.8008497,8.25971557 L26.7533987,8.25971557 C26.4422876,8.25971557 26.1877778,8.01313564 26.1877778,7.69934195 L26.1877778,3.82729877 C26.1877778,3.51907385 26.4424183,3.26692514 26.7533987,3.26692514 L31.0464052,3.26692514 C31.2330065,3.26692514 31.4084314,3.35654348 31.5102614,3.50223803 L34.2648366,7.37991473 C34.5305229,7.74978464 34.2590196,8.25971557 33.8008497,8.25971557 Z M20.9275817,16.2505114 L1.13117647,16.2505114 C0.506470588,16.2505114 0,15.7488041 0,15.1298289 L0,10.086531 C0,9.46755579 0.506470588,8.96578375 1.13117647,8.96578375 L20.9275817,8.96578375 C21.5523529,8.96578375 22.0588235,9.46755579 22.0588235,10.086531 L22.0588235,15.1298289 C22.0588235,15.7488041 21.5523529,16.2505114 20.9275817,16.2505114 Z M9.04980392,7.28472763 L1.13117647,7.28472763 C0.506470588,7.28472763 0,6.78289083 0,6.16398038 L0,1.12074725 C0,0.501772039 0.506470588,0 1.13117647,0 L9.04973856,0 C9.6745098,0 10.1809804,0.501772039 10.1809804,1.12074725 L10.1809804,6.16398038 C10.1810458,6.78289083 9.67457516,7.28472763 9.04980392,7.28472763 Z M20.9275817,7.28472763 L13.009085,7.28472763 C12.3843137,7.28472763 11.8778431,6.78295559 11.8778431,6.16404513 L11.8778431,1.12074725 C11.8778431,0.501772039 12.3843137,6.47531345e-05 13.009085,6.47531345e-05 L20.9276471,6.47531345e-05 C21.5524183,6.47531345e-05 22.0588889,0.501836792 22.0588889,1.12074725 L22.0588889,6.16404513 C22.0588235,6.78289083 21.5523529,7.28472763 20.9275817,7.28472763 Z" id="Shape"></path>
            </g>
        </g>
    </g>
</svg>