<?xml version="1.0" encoding="UTF-8"?>
<svg width="27px" height="35px" viewBox="0 0 27 35" version="1.1" xmlns="http://www.w3.org/2000/svg" xmlns:xlink="http://www.w3.org/1999/xlink">
    <!-- Generator: Sketch 51.3 (57544) - http://www.bohemiancoding.com/sketch -->
    <title>User management</title>
    <desc>Created with Sketch.</desc>
    <defs></defs>
    <g id="Page-1" stroke="none" stroke-width="1" fill="none" fill-rule="evenodd">
        <g id="Mobile" transform="translate(-9.000000, -5.000000)" fill="#214098" fill-rule="nonzero">
            <g id="User-management" transform="translate(9.000000, 5.000000)">
                <path d="M13.4,17.1173 C17.2914,17.1173 20.4463,13.2855 20.4463,8.5587 C20.4463,3.8318 19.4105,0 13.4,0 C7.3895,0 6.3535,3.8318 6.3535,8.5587 C6.3535,13.2855 9.5084,17.1173 13.4,17.1173 Z" id="Shape"></path>
                <path d="M0.0964425626,30.5371904 C0.0904425626,29.5642621 0.0844425626,30.2630691 0.0964425626,30.5371904 Z" id="Shape"></path>
                <path d="M26.7085,30.6486096 C26.7275,30.4979165 26.715,29.6031166 26.7085,30.6486096 Z" id="Shape"></path>
                <path d="M26.6935,29.8397 C26.563,21.6055 25.4876,19.2592 17.2583,17.774 C17.2583,17.774 16.0999,19.2501 13.3999,19.2501 C10.6999,19.2501 9.5413,17.774 9.5413,17.774 C1.4018,19.243 0.261,21.5545 0.111,29.5722 C0.0987,30.2269 0.093,30.2613 0.0908,30.1853 C0.0913,30.3277 0.0919,30.5911 0.0919,31.0504 C0.0919,31.0504 2.0511,35 13.3999,35 C24.7485,35 26.7079,31.0504 26.7079,31.0504 C26.7079,30.7553 26.7081,30.5501 26.7084,30.4105 C26.7062,30.4575 26.7018,30.3664 26.6935,29.8397 Z" id="Shape"></path>
            </g>
        </g>
    </g>
</svg>