<?xml version="1.0" encoding="UTF-8"?>
<svg width="35px" height="41px" viewBox="0 0 35 41" version="1.1" xmlns="http://www.w3.org/2000/svg" xmlns:xlink="http://www.w3.org/1999/xlink">
    <!-- Generator: Sketch 51.3 (57544) - http://www.bohemiancoding.com/sketch -->
    <title>VAS</title>
    <desc>Created with Sketch.</desc>
    <defs></defs>
    <g id="Page-1" stroke="none" stroke-width="1" fill="none" fill-rule="evenodd">
        <g id="Mobile" transform="translate(-5.000000, -2.000000)" fill="#214098" fill-rule="nonzero">
            <g id="VAS" transform="translate(5.000000, 2.000000)">
                <path d="M34.7433333,34.6050943 C34.7433333,34.6050943 30.2229403,26.8359748 29.4121069,25.4425786 C30.3346541,25.1611478 31.3174057,24.9126258 31.725739,24.2075629 C32.4062579,23.0327516 31.1949057,21.1055503 31.5129874,19.8463208 C31.8406447,18.5503302 33.7748899,17.4288994 33.7748899,16.1115566 C33.7748899,14.8281132 31.7751572,13.3287264 31.4472799,12.0403302 C31.1269969,10.7813208 32.334717,8.8520283 31.6519969,7.6786478 C30.9692767,6.50515723 28.6952673,6.60157233 27.7591824,5.70081761 C26.796022,4.77386792 26.7989937,2.50591195 25.6372799,1.88471698 C24.4708333,1.26121069 22.5751101,2.52132075 21.28,2.22283019 C19.9996384,1.92775157 18.8557547,0 17.5183805,0 C16.161195,0 14.0025314,2.18672956 13.663978,2.26542453 C12.3695283,2.56633648 10.4713836,1.30930818 9.3061478,1.93545597 C8.14553459,2.55874214 8.15268868,4.82691824 7.19128931,5.75540881 C6.25674528,6.65781447 3.98262579,6.56558176 3.30199686,7.74039308 C2.62147799,8.91498428 3.83283019,10.8417453 3.51485849,12.1016352 C3.19600629,13.364717 1.19440252,14.6445283 1.19440252,16.105283 C1.19440252,17.4227358 3.13349057,18.5406447 3.46312893,19.8359748 C3.78352201,21.0949843 2.57580189,23.0240566 3.25852201,24.1978774 C3.6302044,24.8367925 4.47350629,25.0990723 5.31570755,25.3512264 C5.41399371,25.3806132 5.59988994,25.490566 5.47397799,25.6740409 C4.89779874,26.6685692 0.260298742,34.6722327 0.260298742,34.6722327 C-0.108632075,35.3088365 0.190959119,35.8545283 0.925849057,35.885456 L4.52303459,36.0354717 C5.25792453,36.0663994 6.17981132,36.6004245 6.57207547,37.2226101 L8.49157233,40.2684906 C8.88383648,40.8906761 9.50624214,40.8790094 9.87506289,40.2425157 C9.87506289,40.2425157 15.2458019,30.9701572 15.2480031,30.9675157 C15.3557547,30.8416038 15.4640566,30.8674686 15.5158962,30.9114937 C16.103522,31.4118396 16.9227201,31.9109748 17.6064308,31.9109748 C18.276934,31.9109748 18.8977987,31.4411164 19.5119497,30.9171069 C19.5619182,30.8745126 19.6835377,30.7872327 19.7724686,30.9683962 C19.7738994,30.9712579 25.138695,40.1928774 25.138695,40.1928774 C25.5085063,40.8286006 26.131022,40.8393868 26.5220755,40.2164308 L28.4361792,37.1669182 C28.8273428,36.5442925 29.748239,36.0081761 30.4831289,35.9761478 L34.0799843,35.8194182 C34.814544,35.7871698 35.1131447,35.2407075 34.7433333,34.6050943 Z M23.4632075,26.2644182 C19.4859748,28.5782704 14.7119969,28.3302987 11.0656132,26.0303145 C5.72261006,22.6079088 3.96457547,15.5282233 7.17654088,9.98446541 C10.4251572,4.37676101 17.5663679,2.39805031 23.2245912,5.47970126 C23.2543082,5.4958805 23.283695,5.51261006 23.3131918,5.5291195 C23.3551258,5.55234277 23.3969497,5.57589623 23.4386635,5.59966981 C25.184261,6.60608491 26.697956,8.06672956 27.7818553,9.92976415 C31.0945283,15.623978 29.1573113,22.9517453 23.4632075,26.2644182 Z" id="Shape"></path>
                <path d="M22.5536478,7.27548742 C22.5371384,7.26591195 22.5204088,7.25699686 22.5038994,7.24753145 C19.4813522,5.49819182 15.6289308,5.37029874 12.4002358,7.24874214 C7.60897799,10.036195 5.97861635,16.2018082 8.76606918,20.992956 C9.61663522,22.4550314 10.7822013,23.6221384 12.1269497,24.459717 C12.241305,24.5321384 12.3569811,24.6033491 12.4751887,24.6718082 C17.2716195,27.450566 23.4339308,25.8090881 26.2125786,21.0128774 C28.9911164,16.2164465 27.3500786,10.0542453 22.5536478,7.27548742 Z M23.7535535,15.116478 L22.0741038,16.7534434 C21.5539465,17.2603931 21.2288208,18.2610849 21.351761,18.977044 L21.7482075,21.2884748 C21.8710377,22.004434 21.4455346,22.3136006 20.8025472,21.9755975 L18.7266509,20.8842138 C18.0836635,20.5462107 17.0315723,20.5462107 16.3885849,20.8842138 L14.3127987,21.9755975 C13.6698113,22.3136006 13.2441981,22.004434 13.3670283,21.2884748 L13.7634748,18.977044 C13.886305,18.2610849 13.5611792,17.2603931 13.041022,16.7534434 L11.3616824,15.116478 C10.8414151,14.6095283 11.0040881,14.1091824 11.7229088,14.0046226 L14.043695,13.6673899 C14.7625157,13.5629403 15.6137421,12.9444969 15.9352358,12.2931447 L16.9731289,10.190173 C17.2946226,9.53882075 17.8207233,9.53882075 18.1421069,10.190173 L19.1801101,12.2931447 C19.5016038,12.9444969 20.3527201,13.5629403 21.0716509,13.6673899 L23.3924371,14.0046226 C24.1111478,14.1091824 24.2737107,14.6095283 23.7535535,15.116478 Z" id="Shape"></path>
            </g>
        </g>
    </g>
</svg>