<?xml version="1.0" encoding="UTF-8"?>
<svg width="35px" height="35px" viewBox="0 0 35 35" version="1.1" xmlns="http://www.w3.org/2000/svg" xmlns:xlink="http://www.w3.org/1999/xlink">
    <!-- Generator: Sketch 51.3 (57544) - http://www.bohemiancoding.com/sketch -->
    <title>Video</title>
    <desc>Created with Sketch.</desc>
    <defs></defs>
    <g id="Page-1" stroke="none" stroke-width="1" fill="none" fill-rule="evenodd">
        <g id="Mobile" transform="translate(-5.000000, -5.000000)" fill="#214098" fill-rule="nonzero">
            <g id="Video" transform="translate(5.000000, 5.000000)">
                <path d="M32.5557778,8.72555556 C27.7384444,0.381666667 17.0686667,-2.47733333 8.72544444,2.34088889 C0.381555556,7.15755556 -2.47755556,17.8268889 2.34066667,26.1704444 C7.15733333,34.5143333 17.8267778,37.3737778 26.1701111,32.556 C34.5141111,27.7376667 37.3745556,17.0688889 32.5557778,8.72555556 Z M24.426,29.5334444 C17.7518889,33.3881111 9.21555556,31.1007778 5.362,24.4253333 C1.50755556,17.7512222 3.79566667,9.215 10.47,5.36222222 C17.1445556,1.50777778 25.6804444,3.79488889 29.5342222,10.4701111 C33.3881111,17.1452222 31.1006667,25.6796667 24.426,29.5334444 Z M23.7283333,16.7391111 L14.5934444,11.4114444 C13.761,10.9254444 13.0895556,11.314 13.0942222,12.2768889 L13.141,22.8517778 C13.1452222,23.8144444 13.8248889,24.2063333 14.6597778,23.7241111 L23.7247778,18.4904444 C24.5587778,18.0091111 24.5605556,17.2251111 23.7283333,16.7391111 Z" id="Shape"></path>
            </g>
        </g>
    </g>
</svg>